<svg xmlns="http://www.w3.org/2000/svg" viewBox="0 0 1254 1254" role="img" aria-label="Noctis Edge — Security Through Exposure" style="width:200px;height:auto;display:block">
<path d="M 631,638 L 631,667 L 630,668 L 629,667 L 629,748 L 629,741 L 630,740 L 631,741 L 631,751 Z" fill="#8d9daa" stroke="none"/>
<path d="M 586,400 L 588,402 L 589,401 L 592,405 L 591,406 L 592,405 L 595,409 L 594,410 L 595,411 L 596,410 L 599,413 L 600,415 L 599,416 L 600,417 L 601,416 L 604,420 L 603,421 L 604,422 L 605,421 L 608,424 L 607,426 L 609,428 L 610,427 L 613,431 L 612,432 L 613,433 L 614,432 L 617,436 L 616,437 L 617,438 L 618,437 L 621,441 L 620,442 L 626,446 L 624,447 L 626,449 L 627,447 L 628,448 L 628,452 L 629,453 L 630,452 L 627,446 L 624,443 L 624,442 L 620,439 L 621,438 L 620,437 L 619,438 L 618,437 L 618,436 L 615,433 L 616,432 L 615,432 L 611,428 L 612,427 L 607,423 L 608,422 L 607,421 L 606,422 L 602,417 L 603,416 L 602,415 L 601,416 L 598,412 L 599,411 L 598,410 L 597,411 L 594,407 L 595,406 L 594,405 L 593,406 L 589,401 L 590,400 L 589,401 L 588,400 L 587,401 Z" fill="#8d9daa" stroke="none"/>
<path d="M 528,398 L 530,448 L 530,588 L 530,416 Z" fill="#8d9daa" stroke="none"/>
<path d="M 527,327 L 472,326 L 491,344 L 491,365 L 488,364 L 488,361 L 489,520 L 491,389 L 495,397 L 509,392 L 517,394 L 519,390 L 526,386 L 527,388 L 528,384 L 543,380 L 541,377 L 545,377 L 543,375 L 548,374 L 550,369 L 556,369 L 558,365 L 560,367 L 549,357 L 551,356 Z" fill="#8d9daa" stroke="none"/>
<path d="M 598,229 L 537,260 L 530,242 L 475,263 L 402,284 L 401,336 L 403,300 L 406,306 L 404,315 L 412,322 L 414,335 L 418,336 L 416,342 L 421,348 L 423,339 L 423,357 L 425,328 L 424,386 L 425,299 L 466,289 L 518,270 Z" fill="#8d9daa" stroke="none"/>
<path d="M 634,180 L 635,326 L 638,326 L 639,318 L 644,314 L 658,318 L 663,314 L 659,312 L 666,308 L 667,332 L 668,259 L 669,354 L 669,259 L 685,269 L 683,258 L 686,248 L 690,246 L 698,255 L 695,278 L 699,256 Z" fill="#8d9daa" stroke="none"/>
<path d="M 627,170 L 627,323 L 627,318 L 629,317 L 630,320 L 631,296 L 632,327 L 631,231 L 631,239 L 629,239 L 629,236 L 629,269 L 627,269 Z" fill="#8d9daa" stroke="none"/>
<path d="M 599,927 L 604,927 L 605,928 L 611,928 L 612,929 L 617,929 L 618,930 L 633,930 L 634,929 L 640,929 L 641,930 L 645,930 L 646,929 L 652,929 L 653,928 L 655,928 L 656,927 L 661,927 L 645,927 L 644,928 L 632,928 L 631,929 L 624,929 L 623,928 L 615,928 L 614,927 Z" fill="#26445c" stroke="none"/>
<path d="M 846,925 L 925,925 L 926,924 L 936,924 L 856,924 L 855,925 Z" fill="#26445c" stroke="none"/>
<path d="M 326,924 L 331,924 L 332,925 L 398,925 L 393,925 L 392,924 Z" fill="#26445c" stroke="none"/>
<path d="M 590,922 L 606,922 L 607,921 L 618,921 L 619,920 L 637,920 L 638,921 L 649,921 L 650,922 L 666,922 L 652,922 L 651,921 L 652,920 L 654,920 L 644,920 L 643,919 L 617,919 L 616,920 L 604,920 L 605,921 L 604,922 Z" fill="#26445c" stroke="none"/>
<path d="M 692,661 L 690,661 L 689,662 L 688,662 L 689,662 L 690,663 L 689,664 L 689,665 L 688,666 L 688,667 L 687,668 L 687,669 L 686,670 L 685,670 L 685,672 L 684,673 L 684,676 L 683,677 L 684,678 L 681,681 L 682,682 L 681,683 L 682,682 L 681,681 L 684,678 L 685,678 L 686,679 L 685,680 L 687,678 L 686,677 L 688,675 L 689,675 L 691,673 L 692,673 Z" fill="#26445c" stroke="none"/>
<path d="M 550,652 L 566,667 L 566,669 L 569,672 L 570,671 L 573,673 L 572,674 L 574,676 L 575,675 L 576,677 L 579,680 L 580,679 L 582,682 L 583,682 L 586,685 L 590,687 L 593,690 L 594,690 L 596,692 L 600,694 L 603,697 L 603,696 L 601,694 L 598,693 L 593,688 L 592,688 L 589,685 L 588,685 L 584,681 L 583,681 L 579,677 L 578,677 L 574,673 L 573,673 L 568,668 L 567,668 Z" fill="#26445c" stroke="none"/>
<path d="M 687,643 L 687,644 L 688,645 L 688,647 L 687,648 L 687,651 L 686,652 L 686,657 L 685,658 L 686,658 L 687,659 L 689,659 L 690,658 L 693,658 L 692,657 L 692,651 L 693,650 L 693,643 Z" fill="#26445c" stroke="none"/>
<path d="M 678,625 L 678,631 L 679,632 L 679,640 L 678,641 L 689,641 L 687,641 L 686,640 L 687,639 L 692,639 L 692,637 L 691,637 L 690,638 L 689,637 L 689,629 L 690,628 L 690,627 L 691,626 L 692,626 L 690,626 L 689,625 L 690,624 L 692,624 L 681,624 L 680,625 Z" fill="#26445c" stroke="none"/>
<path d="M 704,588 L 705,588 L 706,589 L 705,590 L 704,590 L 704,592 L 705,592 L 706,593 L 706,601 L 705,602 L 705,603 L 706,604 L 705,605 L 720,605 L 720,588 Z" fill="#26445c" stroke="none"/>
<path d="M 678,585 L 678,605 L 685,605 L 685,604 L 686,603 L 691,603 L 690,603 L 688,601 L 688,600 L 687,599 L 687,588 L 686,587 L 687,586 L 692,586 L 681,586 L 680,585 Z" fill="#26445c" stroke="none"/>
<path d="M 678,548 L 678,566 L 693,566 L 694,567 L 694,577 L 694,567 L 693,566 L 693,547 L 684,547 L 683,548 Z" fill="#26445c" stroke="none"/>
<path d="M 831,529 L 830,528 L 825,534 L 824,533 L 822,535 L 823,536 L 816,544 L 814,543 L 730,543 L 729,545 L 730,546 L 774,546 L 775,545 L 781,545 L 782,546 L 784,545 L 810,545 L 811,546 L 814,545 L 815,546 L 829,533 Z" fill="#26445c" stroke="none"/>
<path d="M 852,475 L 850,475 L 840,485 L 839,485 L 835,489 L 834,488 L 830,492 L 831,493 L 829,495 L 828,494 L 824,498 L 825,499 L 823,501 L 822,501 L 806,517 L 821,502 L 822,502 L 823,503 L 822,504 L 828,498 L 829,498 L 850,477 L 849,476 L 850,475 Z" fill="#26445c" stroke="none"/>
<path d="M 817,466 L 817,476 L 826,476 L 826,466 Z" fill="#26445c" stroke="none"/>
<path d="M 836,437 L 830,437 L 829,438 L 828,438 L 825,441 L 824,440 L 813,451 L 814,452 L 814,453 L 813,454 L 812,454 L 811,453 L 807,457 L 808,458 L 809,458 L 811,456 L 812,457 L 814,455 L 813,454 L 814,453 L 815,453 L 821,447 L 822,447 L 828,441 L 827,440 L 828,439 L 829,439 L 830,438 L 836,438 Z" fill="#26445c" stroke="none"/>
<path d="M 679,433 L 678,525 L 684,527 L 681,528 L 681,535 L 684,538 L 684,545 L 692,545 L 693,542 L 694,545 L 692,541 L 693,525 L 683,525 L 686,523 L 693,523 L 693,506 L 685,507 L 683,505 L 685,504 L 685,493 L 691,490 L 691,488 L 687,486 L 686,472 L 691,469 L 690,470 L 685,466 L 684,453 L 688,450 L 691,450 L 692,434 L 693,448 L 695,449 L 693,450 L 709,450 L 695,449 L 693,445 L 693,434 Z" fill="#26445c" stroke="none"/>
<path d="M 794,424 L 794,433 L 795,434 L 794,435 L 797,435 L 798,434 L 805,434 L 804,433 L 804,424 L 796,424 L 796,433 L 795,434 L 794,433 Z" fill="#26445c" stroke="none"/>
<path d="M 527,423 L 526,454 L 525,448 L 524,451 L 516,451 L 512,449 L 513,451 L 511,452 L 508,448 L 506,449 L 505,447 L 502,447 L 503,448 L 500,451 L 497,449 L 498,450 L 495,452 L 494,451 L 493,454 L 492,434 L 491,508 L 492,502 L 493,510 L 499,506 L 504,510 L 511,510 L 513,507 L 517,511 L 523,508 L 524,505 L 522,502 L 524,502 L 523,501 L 525,499 L 526,518 Z" fill="#26445c" stroke="none"/>
<path d="M 742,422 L 741,423 L 729,423 L 728,424 L 728,425 L 729,426 L 729,427 L 730,428 L 731,427 L 732,428 L 732,429 L 735,429 L 736,430 L 737,429 L 738,429 L 739,430 L 738,431 L 738,432 L 737,433 L 737,434 L 736,435 L 730,435 L 736,435 L 737,434 L 738,435 L 738,436 L 738,435 L 737,434 L 738,433 L 738,431 L 739,430 L 742,430 Z" fill="#26445c" stroke="none"/>
<path d="M 879,417 L 876,414 L 870,416 L 868,418 L 869,419 L 871,417 L 872,417 L 871,416 L 872,415 L 874,415 L 875,416 L 874,417 L 876,416 L 878,419 L 877,420 L 877,422 L 878,423 L 875,426 L 874,425 L 872,425 L 871,426 L 868,424 L 869,422 L 868,423 L 868,425 L 866,427 L 865,426 L 857,434 L 864,427 L 865,428 L 865,429 L 858,436 L 856,437 L 843,437 L 848,437 L 849,438 L 856,438 L 857,437 L 858,438 L 869,427 L 871,428 L 875,428 L 877,427 L 880,423 L 880,420 L 878,419 Z" fill="#26445c" stroke="none"/>
<path d="M 405,413 L 412,460 L 418,484 L 421,488 L 420,491 L 427,507 L 426,509 L 428,509 L 430,514 L 434,513 L 437,518 L 434,518 L 434,525 L 438,534 L 438,526 L 440,527 L 445,522 L 446,524 L 447,522 L 450,523 L 451,530 L 454,527 L 456,530 L 457,528 L 453,524 L 454,521 L 451,519 L 452,516 L 449,514 L 448,506 L 446,506 L 447,503 L 445,503 L 446,500 L 444,500 L 445,497 L 443,497 L 444,494 L 442,494 L 441,485 L 439,485 L 438,474 L 436,474 L 437,471 L 434,466 L 427,422 L 428,440 L 425,429 L 424,431 L 423,429 L 414,431 L 420,430 L 421,434 L 419,436 L 417,433 L 414,437 L 413,433 L 409,436 L 406,426 L 409,421 L 406,420 Z" fill="#26445c" stroke="none"/>
<path d="M 708,405 L 707,406 L 706,405 L 702,405 L 701,406 L 696,406 L 696,417 L 702,417 L 703,416 L 704,417 L 706,417 L 707,416 L 708,416 Z" fill="#26445c" stroke="none"/>
<path d="M 727,405 L 727,413 L 728,414 L 728,416 L 727,417 L 727,418 L 741,418 L 742,417 L 743,417 L 743,404 L 740,404 L 739,405 L 732,405 L 731,404 L 728,404 Z" fill="#26445c" stroke="none"/>
<path d="M 631,404 L 631,408 L 630,409 L 629,408 L 629,407 L 629,416 L 628,417 L 627,416 L 627,409 L 627,428 L 628,429 L 628,432 L 631,432 L 632,433 L 632,409 L 631,408 Z" fill="#26445c" stroke="none"/>
<path d="M 584,399 L 598,417 L 576,424 L 579,429 L 569,435 L 573,442 L 567,447 L 564,437 L 561,439 L 555,431 L 613,510 L 620,512 L 617,515 L 625,511 L 621,506 L 624,494 L 630,498 L 630,494 L 634,497 L 644,491 L 642,496 L 649,496 L 645,500 L 657,509 L 659,526 L 667,534 L 667,578 L 668,381 L 667,438 L 666,407 L 662,409 L 660,399 L 650,393 L 635,404 L 634,390 L 633,459 Z" fill="#26445c" stroke="none"/>
<path d="M 710,380 L 710,392 L 709,393 L 710,392 L 711,393 L 725,393 L 724,392 L 724,379 L 723,380 L 716,380 L 715,379 L 712,379 L 711,380 Z" fill="#26445c" stroke="none"/>
<path d="M 679,363 L 679,375 L 678,376 L 678,378 L 693,378 L 693,363 L 692,364 L 685,364 L 684,363 Z" fill="#26445c" stroke="none"/>
<path d="M 747,335 L 747,338 L 748,339 L 748,347 L 747,348 L 747,349 L 746,350 L 748,348 L 749,349 L 760,349 L 760,335 Z" fill="#26445c" stroke="none"/>
<path d="M 723,312 L 724,313 L 726,313 L 728,315 L 728,321 L 727,322 L 726,322 L 725,321 L 724,322 L 723,322 L 722,321 L 721,322 L 720,322 L 719,321 L 717,321 L 719,321 L 722,324 L 723,324 L 728,329 L 730,329 L 731,328 L 731,327 L 732,326 L 732,325 L 733,324 L 731,322 L 729,322 L 728,321 L 728,315 L 726,313 L 724,313 Z" fill="#26445c" stroke="none"/>
<path d="M 693,303 L 693,310 L 691,312 L 681,312 L 680,311 L 679,312 L 679,324 L 681,324 L 682,323 L 685,323 L 687,321 L 688,321 L 689,322 L 691,322 L 692,321 L 693,322 L 693,319 L 693,320 L 692,321 L 690,319 L 690,314 L 689,313 L 690,312 L 692,312 L 693,311 Z" fill="#26445c" stroke="none"/>
<path d="M 736,286 L 736,288 L 742,294 L 742,295 L 743,296 L 744,296 L 745,297 L 745,300 L 745,297 L 744,296 L 744,295 L 745,294 L 747,294 L 748,295 L 749,295 L 751,293 L 752,293 L 753,292 L 753,290 L 752,289 L 751,290 L 750,289 L 749,290 L 748,290 L 745,293 L 744,292 L 743,293 L 740,290 L 740,287 L 739,286 L 740,285 L 739,285 L 738,286 Z" fill="#26445c" stroke="none"/>
<path d="M 695,229 L 695,230 L 696,231 L 696,234 L 695,235 L 695,237 L 697,237 L 698,238 L 702,238 L 702,233 L 701,232 L 701,230 L 697,230 L 696,229 Z" fill="#26445c" stroke="none"/>
<path d="M 578,214 L 580,216 L 579,217 L 578,217 L 576,215 L 578,217 L 575,219 L 574,218 L 572,219 L 571,221 L 570,220 L 566,223 L 552,230 L 560,226 L 562,228 L 561,229 L 562,230 L 561,231 L 558,230 L 559,230 L 560,232 L 561,232 L 562,234 L 563,234 L 566,237 L 564,238 L 567,238 L 569,240 L 571,240 L 572,241 L 568,243 L 566,245 L 563,246 L 582,237 L 584,235 L 585,235 L 586,233 L 587,234 L 586,233 L 587,232 L 589,233 L 588,232 L 591,230 L 592,231 L 591,230 L 592,229 L 594,230 L 593,228 L 591,229 L 590,228 L 591,227 L 590,228 L 589,227 L 587,227 L 586,225 L 582,222 L 583,220 L 581,216 L 580,216 Z" fill="#26445c" stroke="none"/>
<path d="M 1075,966 L 1075,988 L 1091,988 L 1091,987 L 1078,987 L 1077,986 L 1077,984 L 1076,983 L 1076,979 L 1078,977 L 1089,977 L 1089,976 L 1077,976 L 1076,975 L 1076,968 L 1078,966 L 1089,966 L 1090,967 L 1091,966 Z" fill="#e5ecef" stroke="none"/>
<path d="M 1036,966 L 1036,988 L 1037,988 L 1037,980 L 1038,979 L 1044,979 L 1046,981 L 1046,982 L 1048,984 L 1048,985 L 1051,988 L 1053,988 L 1051,986 L 1051,985 L 1049,983 L 1049,982 L 1047,980 L 1049,978 L 1050,978 L 1053,975 L 1053,969 L 1050,966 Z" fill="#e5ecef" stroke="none"/>
<path d="M 995,966 L 995,984 L 996,985 L 996,986 L 999,988 L 1002,988 L 1003,989 L 1004,988 L 1005,989 L 1006,988 L 1009,988 L 1012,985 L 1012,984 L 1013,983 L 1013,966 L 1012,966 L 1012,981 L 1011,982 L 1010,985 L 1008,987 L 1006,987 L 1005,988 L 1002,988 L 1001,987 L 1000,987 L 997,984 L 997,983 L 996,982 L 996,966 Z" fill="#e5ecef" stroke="none"/>
<path d="M 892,967 L 891,967 L 890,966 L 877,966 L 877,988 L 878,988 L 878,981 L 879,980 L 887,980 L 888,979 L 891,979 L 893,977 L 893,976 L 894,975 L 894,970 L 893,969 L 893,968 Z" fill="#e5ecef" stroke="none"/>
<path d="M 837,966 L 838,967 L 838,968 L 841,971 L 841,972 L 843,974 L 843,975 L 845,977 L 841,981 L 841,982 L 839,984 L 839,985 L 836,988 L 837,988 L 838,989 L 839,988 L 839,987 L 841,985 L 841,984 L 843,982 L 843,981 L 845,979 L 846,979 L 849,982 L 849,983 L 853,988 L 855,988 L 853,986 L 853,985 L 851,983 L 851,982 L 847,977 L 848,976 L 848,975 L 850,973 L 850,972 L 852,970 L 852,969 L 855,966 L 852,966 L 852,967 L 850,969 L 850,970 L 846,975 L 843,972 L 843,971 L 841,969 L 841,968 L 839,966 Z" fill="#e5ecef" stroke="none"/>
<path d="M 737,966 L 737,988 L 738,988 L 738,979 L 740,977 L 752,977 L 754,979 L 754,988 L 755,988 L 755,966 L 754,966 L 754,975 L 753,976 L 739,976 L 738,975 L 738,966 Z" fill="#e5ecef" stroke="none"/>
<path d="M 655,966 L 655,983 L 656,984 L 656,985 L 659,988 L 661,988 L 662,989 L 665,989 L 666,988 L 669,988 L 670,987 L 671,987 L 673,984 L 673,966 L 672,966 L 672,982 L 671,983 L 671,984 L 668,987 L 666,987 L 665,988 L 663,988 L 662,987 L 660,987 L 657,984 L 657,983 L 656,982 L 656,966 Z" fill="#e5ecef" stroke="none"/>
<path d="M 573,966 L 574,967 L 573,968 L 573,988 L 575,988 L 575,980 L 576,979 L 582,979 L 584,981 L 584,982 L 586,984 L 586,985 L 588,987 L 588,988 L 590,988 L 590,987 L 588,985 L 588,984 L 585,981 L 585,979 L 586,978 L 588,978 L 590,976 L 590,975 L 591,974 L 591,970 L 590,969 L 590,968 L 587,966 Z" fill="#e5ecef" stroke="none"/>
<path d="M 532,966 L 532,988 L 533,988 L 533,979 L 535,977 L 548,977 L 549,978 L 549,988 L 550,989 L 551,988 L 551,966 L 549,966 L 549,975 L 548,976 L 535,976 L 534,975 L 534,972 L 533,971 L 533,967 L 534,966 Z" fill="#e5ecef" stroke="none"/>
<path d="M 512,966 L 495,966 L 495,967 L 496,966 L 497,966 L 498,967 L 501,967 L 502,968 L 502,969 L 503,970 L 503,974 L 502,975 L 502,988 L 503,989 L 504,988 L 504,968 L 506,966 L 507,967 L 508,966 L 509,967 L 510,966 Z" fill="#e5ecef" stroke="none"/>
<path d="M 339,966 L 339,988 L 341,988 L 341,980 L 342,979 L 348,979 L 350,981 L 350,982 L 352,984 L 352,985 L 354,987 L 354,988 L 356,988 L 355,987 L 355,986 L 353,984 L 353,983 L 351,981 L 351,980 L 353,978 L 354,978 L 356,976 L 356,974 L 357,973 L 357,971 L 356,970 L 356,968 L 353,966 Z" fill="#e5ecef" stroke="none"/>
<path d="M 298,966 L 298,982 L 299,983 L 299,985 L 302,988 L 304,988 L 305,989 L 309,989 L 310,988 L 313,988 L 316,985 L 316,983 L 317,982 L 317,966 L 315,966 L 316,967 L 316,969 L 315,970 L 315,978 L 316,979 L 316,981 L 313,986 L 312,986 L 311,987 L 309,987 L 308,988 L 307,987 L 304,987 L 300,983 L 300,968 L 299,967 L 300,966 Z" fill="#e5ecef" stroke="none"/>
<path d="M 223,966 L 223,988 L 239,988 L 239,987 L 226,987 L 225,986 L 225,978 L 226,977 L 237,977 L 237,976 L 226,976 L 225,975 L 225,967 L 226,966 L 239,966 Z" fill="#e5ecef" stroke="none"/>
<path d="M 963,965 L 962,966 L 960,966 L 959,967 L 958,967 L 958,968 L 957,969 L 957,973 L 959,976 L 961,976 L 962,977 L 965,977 L 966,978 L 968,978 L 972,982 L 972,983 L 971,984 L 971,985 L 969,987 L 967,987 L 966,988 L 963,988 L 962,987 L 960,987 L 957,985 L 956,986 L 957,987 L 958,987 L 959,988 L 961,988 L 962,989 L 967,989 L 968,988 L 970,988 L 973,985 L 973,980 L 970,977 L 968,977 L 967,976 L 963,976 L 962,975 L 961,975 L 958,972 L 958,970 L 962,966 L 967,966 L 968,967 L 970,967 L 971,968 L 972,968 L 972,967 L 971,966 L 968,966 L 967,965 Z" fill="#e5ecef" stroke="none"/>
<path d="M 922,965 L 921,966 L 920,966 L 919,967 L 918,967 L 915,970 L 915,971 L 914,972 L 914,975 L 913,976 L 913,977 L 914,978 L 914,982 L 915,983 L 915,984 L 918,987 L 919,987 L 920,988 L 922,988 L 923,989 L 926,989 L 927,988 L 930,988 L 931,987 L 932,987 L 934,985 L 934,984 L 935,983 L 935,982 L 936,981 L 936,973 L 935,972 L 935,971 L 934,970 L 934,969 L 932,967 L 931,967 L 930,966 L 929,966 L 928,965 Z" fill="#e5ecef" stroke="none"/>
<path d="M 801,965 L 801,988 L 816,988 L 816,987 L 803,987 L 802,986 L 802,978 L 803,977 L 815,977 L 815,976 L 803,976 L 802,975 L 802,968 L 804,966 L 816,966 L 802,966 Z" fill="#e5ecef" stroke="none"/>
<path d="M 699,967 L 696,970 L 696,971 L 695,972 L 695,982 L 696,983 L 696,984 L 699,987 L 700,987 L 701,988 L 703,988 L 704,989 L 708,989 L 709,988 L 712,988 L 714,986 L 715,986 L 715,977 L 707,977 L 707,978 L 708,978 L 709,977 L 712,977 L 714,979 L 714,984 L 711,987 L 709,987 L 708,988 L 705,988 L 704,987 L 702,987 L 697,982 L 697,980 L 696,979 L 696,974 L 697,973 L 698,970 L 700,968 L 701,968 L 704,966 L 708,966 L 709,967 L 711,967 L 713,969 L 714,968 L 714,967 L 713,967 L 712,966 L 710,966 L 709,965 L 704,965 L 703,966 L 701,966 L 700,967 Z" fill="#e5ecef" stroke="none"/>
<path d="M 621,965 L 620,966 L 617,966 L 616,967 L 615,967 L 613,969 L 613,970 L 612,971 L 612,972 L 611,973 L 611,980 L 612,981 L 612,983 L 613,984 L 613,985 L 615,987 L 616,987 L 617,988 L 620,988 L 621,989 L 624,989 L 625,988 L 627,988 L 628,987 L 629,987 L 632,984 L 632,983 L 633,982 L 633,980 L 634,979 L 634,975 L 633,974 L 633,971 L 632,970 L 632,969 L 630,967 L 629,967 L 628,966 L 626,966 L 625,965 Z" fill="#e5ecef" stroke="none"/>
<path d="M 436,965 L 436,966 L 438,968 L 438,969 L 440,971 L 440,972 L 442,974 L 442,975 L 443,976 L 443,977 L 445,979 L 445,988 L 447,988 L 447,979 L 448,978 L 448,977 L 449,976 L 449,975 L 451,973 L 451,972 L 453,970 L 453,969 L 454,968 L 454,967 L 455,966 L 453,966 L 453,967 L 451,969 L 451,970 L 449,972 L 449,973 L 448,974 L 448,975 L 446,977 L 444,975 L 444,974 L 442,972 L 442,971 L 441,970 L 441,969 L 439,967 L 439,966 L 438,965 L 437,966 Z" fill="#e5ecef" stroke="none"/>
<path d="M 268,965 L 267,966 L 264,966 L 262,968 L 261,968 L 261,969 L 259,971 L 259,974 L 258,975 L 258,979 L 259,980 L 259,983 L 264,988 L 267,988 L 268,989 L 271,989 L 272,988 L 275,988 L 277,986 L 277,985 L 276,985 L 274,987 L 271,987 L 270,988 L 269,988 L 268,987 L 266,987 L 265,986 L 264,986 L 260,980 L 260,974 L 261,973 L 262,970 L 265,967 L 267,967 L 268,966 L 272,966 L 273,967 L 274,967 L 276,969 L 277,969 L 278,968 L 275,966 L 272,966 L 271,965 Z" fill="#e5ecef" stroke="none"/>
<path d="M 191,965 L 190,966 L 188,966 L 185,969 L 185,972 L 186,973 L 186,974 L 188,976 L 189,976 L 190,977 L 194,977 L 195,978 L 198,979 L 200,981 L 200,984 L 197,987 L 196,987 L 195,988 L 192,988 L 191,987 L 189,987 L 186,985 L 185,986 L 185,987 L 186,987 L 187,988 L 190,988 L 191,989 L 196,989 L 197,988 L 199,988 L 201,986 L 201,985 L 202,984 L 202,980 L 200,978 L 199,978 L 198,977 L 196,977 L 195,976 L 192,976 L 191,975 L 190,975 L 187,972 L 187,970 L 188,969 L 188,968 L 191,966 L 196,966 L 199,968 L 200,968 L 201,967 L 200,967 L 199,966 L 197,966 L 196,965 Z" fill="#e5ecef" stroke="none"/>
<path d="M 590,924 L 601,924 L 602,925 L 603,924 L 606,924 L 607,925 L 649,925 L 650,924 L 658,924 L 638,924 L 637,923 L 621,923 L 620,924 Z" fill="#e5ecef" stroke="none"/>
<path d="M 619,811 L 614,819 L 613,830 L 616,839 L 622,845 L 632,848 L 670,848 L 677,854 L 678,861 L 676,866 L 669,871 L 617,871 L 614,880 L 671,880 L 679,877 L 685,870 L 687,863 L 686,851 L 679,842 L 672,839 L 630,838 L 623,831 L 623,823 L 629,816 L 682,815 L 685,806 L 631,806 Z" fill="#e5ecef" stroke="none"/>
<path d="M 571,806 L 571,823 L 572,824 L 572,868 L 571,869 L 571,876 L 572,877 L 572,879 L 571,880 L 581,880 L 581,806 Z" fill="#e5ecef" stroke="none"/>
<path d="M 461,806 L 461,815 L 493,815 L 495,817 L 495,878 L 496,879 L 495,880 L 505,880 L 505,817 L 507,815 L 508,816 L 539,815 L 539,806 Z" fill="#e5ecef" stroke="none"/>
<path d="M 367,812 L 361,823 L 361,864 L 364,871 L 372,878 L 378,880 L 432,880 L 432,871 L 381,871 L 372,865 L 370,859 L 370,828 L 372,822 L 377,817 L 384,815 L 432,815 L 432,806 L 380,806 Z" fill="#e5ecef" stroke="none"/>
<path d="M 249,815 L 245,825 L 245,862 L 249,872 L 253,876 L 262,880 L 312,880 L 319,877 L 324,873 L 327,868 L 329,859 L 329,828 L 327,819 L 321,811 L 314,807 L 309,806 L 265,806 L 254,810 Z" fill="#e5ecef" stroke="none"/>
<path d="M 134,806 L 134,880 L 144,880 L 145,821 L 203,880 L 212,880 L 212,806 L 203,806 L 202,864 L 144,806 Z" fill="#e5ecef" stroke="none"/>
<path d="M 471,325 L 527,326 L 613,432 L 610,429 L 611,427 L 615,431 L 607,425 L 608,423 L 610,425 L 529,325 Z" fill="#e5ecef" stroke="none"/>
<path d="M 670,260 L 670,494 L 671,379 L 674,389 L 676,367 L 676,270 Z" fill="#e5ecef" stroke="none"/>
<path d="M 551,229 L 526,241 L 481,259 L 437,273 L 402,281 L 432,275 L 475,262 L 511,248 Z" fill="#e5ecef" stroke="none"/>
<path d="M 628,171 L 628,269 L 628,236 L 630,239 L 630,231 L 632,231 L 633,334 L 633,180 L 639,184 L 682,235 Z" fill="#e5ecef" stroke="none"/>
<path d="M 603,925 L 653,926 L 781,924 L 638,923 L 658,923 L 658,925 L 649,926 Z" fill="#6dc0ef" stroke="none"/>
<path d="M 620,923 L 478,924 L 601,925 L 590,925 L 589,924 L 590,923 Z" fill="#6dc0ef" stroke="none"/>
<path d="M 1146,806 L 1145,807 L 1144,806 L 1143,807 L 1080,807 L 1080,809 L 1079,810 L 1079,814 L 1080,815 L 1143,815 L 1144,813 L 1144,811 L 1145,810 L 1145,807 Z" fill="#6dc0ef" stroke="none"/>
<path d="M 1046,807 L 1045,806 L 1043,807 L 995,807 L 994,808 L 990,807 L 989,809 L 987,808 L 986,810 L 985,809 L 984,811 L 983,810 L 980,815 L 977,817 L 978,818 L 976,819 L 975,822 L 975,853 L 975,829 L 976,828 L 977,829 L 977,835 L 981,834 L 982,831 L 983,832 L 983,844 L 984,846 L 984,825 L 989,818 L 997,815 L 1042,815 L 1044,814 Z" fill="#6dc0ef" stroke="none"/>
<path d="M 867,806 L 868,813 L 867,815 L 920,815 L 928,817 L 934,823 L 935,826 L 935,854 L 936,835 L 937,834 L 938,837 L 943,834 L 944,835 L 944,860 L 944,823 L 942,818 L 936,811 L 932,810 L 931,808 L 929,809 L 928,807 L 922,808 L 921,807 L 868,807 Z" fill="#6dc0ef" stroke="none"/>
<path d="M 765,806 L 765,880 L 834,880 L 834,871 L 833,880 L 766,879 L 767,834 L 768,839 L 773,834 L 775,839 L 829,840 L 828,847 L 776,847 L 774,852 L 776,847 L 829,847 L 830,839 L 776,839 L 775,817 L 831,815 L 834,806 Z" fill="#6dc0ef" stroke="none"/>
<path d="M 633,591 L 633,733 L 632,751 L 630,751 L 630,741 L 629,749 L 632,755 L 631,756 L 633,751 Z" fill="#6dc0ef" stroke="none"/>
<path d="M 600,497 L 603,500 L 603,501 L 605,503 L 605,504 L 608,507 L 608,508 L 611,511 L 611,512 L 614,515 L 614,516 L 617,519 L 617,520 L 620,523 L 620,524 L 623,527 L 623,528 L 626,531 L 626,532 L 629,535 L 631,535 L 632,536 L 630,534 L 630,533 L 627,530 L 627,529 L 623,525 L 623,524 L 620,521 L 620,520 L 617,517 L 617,516 L 614,513 L 614,512 L 611,509 L 611,508 L 607,504 L 607,503 L 605,501 L 604,502 L 603,501 L 603,500 L 604,499 L 602,497 L 601,498 Z" fill="#6dc0ef" stroke="none"/>
<path d="M 705,490 L 768,490 L 767,490 L 766,489 L 767,488 L 770,488 L 707,488 L 710,488 L 711,489 L 710,490 Z" fill="#6dc0ef" stroke="none"/>
<path d="M 675,367 L 671,408 L 670,695 L 677,685 L 672,691 L 670,688 L 671,528 L 674,535 L 676,530 L 676,566 Z" fill="#6dc0ef" stroke="none"/>
<path d="M 813,366 L 774,404 L 773,455 L 760,467 L 710,467 L 710,469 L 703,469 L 761,469 L 776,454 L 776,405 Z" fill="#6dc0ef" stroke="none"/>
<path d="M 877,298 L 877,308 L 887,308 L 887,299 L 882,299 L 881,298 Z" fill="#6dc0ef" stroke="none"/>
<path d="M 813,297 L 802,297 L 801,299 L 801,309 L 807,312 L 807,332 L 806,334 L 759,379 L 746,379 L 745,380 L 744,379 L 744,393 L 746,394 L 760,393 L 759,381 L 809,333 L 809,312 L 811,310 L 815,310 L 815,299 Z" fill="#6dc0ef" stroke="none"/>
<path d="M 813,268 L 812,269 L 812,278 L 813,278 L 814,279 L 822,279 L 822,270 L 820,270 L 819,269 L 816,269 L 815,268 Z" fill="#6dc0ef" stroke="none"/>
<path d="M 731,268 L 731,282 L 746,282 L 746,268 Z" fill="#6dc0ef" stroke="none"/>
<path d="M 672,262 L 672,263 L 673,264 L 673,265 L 675,267 L 675,268 L 677,270 L 677,271 L 678,270 L 680,272 L 681,272 L 682,273 L 681,274 L 682,273 L 684,275 L 684,276 L 685,275 L 686,276 L 687,276 L 690,279 L 691,279 L 692,278 L 690,276 L 689,277 L 686,274 L 686,273 L 683,270 L 681,270 L 680,269 L 680,268 L 677,265 L 676,266 L 674,264 L 674,263 L 673,262 Z" fill="#6dc0ef" stroke="none"/>
<path d="M 849,257 L 849,264 L 855,264 L 856,265 L 856,258 L 854,258 L 853,257 Z" fill="#6dc0ef" stroke="none"/>
<path d="M 757,241 L 757,253 L 760,253 L 761,254 L 769,254 L 769,242 L 758,242 Z" fill="#6dc0ef" stroke="none"/>
<path d="M 514,618 L 520,624 L 521,623 L 523,625 L 522,627 L 527,632 L 528,631 L 530,633 L 530,635 L 531,635 L 532,637 L 533,637 L 534,639 L 552,657 L 553,657 L 565,668 L 565,667 L 560,662 L 559,662 L 524,627 L 524,626 L 518,620 L 517,621 Z" fill="#5b6f7d" stroke="none"/>
<path d="M 548,354 L 558,367 L 544,375 L 543,381 L 528,385 L 517,395 L 509,393 L 495,398 L 492,389 L 491,450 L 492,433 L 493,453 L 502,446 L 511,451 L 514,448 L 524,450 L 525,447 L 526,453 L 527,422 L 528,482 L 528,397 L 533,399 L 549,424 L 546,424 L 569,454 L 568,445 L 573,438 L 569,434 L 572,431 L 576,433 L 576,425 L 581,420 L 582,425 L 589,421 L 588,418 L 593,419 L 598,415 Z" fill="#5b6f7d" stroke="none"/>
<path d="M 634,310 L 635,403 L 637,402 L 637,404 L 650,392 L 651,394 L 654,394 L 655,397 L 659,397 L 656,400 L 660,398 L 661,399 L 659,402 L 662,404 L 661,406 L 662,404 L 663,408 L 664,406 L 666,406 L 663,375 L 665,365 L 664,340 L 666,329 L 666,309 L 663,309 L 660,312 L 664,314 L 662,316 L 660,315 L 660,317 L 658,317 L 658,315 L 655,318 L 649,315 L 644,315 L 640,318 L 640,324 L 638,325 L 637,323 L 638,325 L 635,327 Z" fill="#5b6f7d" stroke="none"/>
<path d="M 405,298 L 402,302 L 402,336 L 400,336 L 400,320 L 400,373 L 400,370 L 402,370 L 402,406 L 403,401 L 405,401 L 403,415 L 406,413 L 408,421 L 406,437 L 408,432 L 409,435 L 413,434 L 414,436 L 417,432 L 418,436 L 416,437 L 420,434 L 418,430 L 422,429 L 423,433 L 423,430 L 427,431 L 428,439 L 426,429 L 427,418 L 425,420 L 422,339 L 421,349 L 419,343 L 415,342 L 417,340 L 414,339 L 417,336 L 413,334 L 416,332 L 411,327 L 411,322 L 404,317 L 405,315 L 402,312 L 405,307 Z" fill="#5b6f7d" stroke="none"/>
<path d="M 688,245 L 690,247 L 689,248 L 687,248 L 686,249 L 685,248 L 688,251 L 687,252 L 686,252 L 687,255 L 686,256 L 685,256 L 684,255 L 683,256 L 684,255 L 685,256 L 685,257 L 684,258 L 686,260 L 684,262 L 685,261 L 686,262 L 686,263 L 685,264 L 685,266 L 684,267 L 685,268 L 684,269 L 683,269 L 676,263 L 680,267 L 681,267 L 687,273 L 688,273 L 694,279 L 693,278 L 695,276 L 695,274 L 696,273 L 696,269 L 697,268 L 697,255 L 698,254 L 699,255 L 698,254 L 697,255 L 693,251 L 693,250 L 694,249 L 695,250 L 694,249 L 693,250 Z" fill="#5b6f7d" stroke="none"/>
<path d="M 571,241 L 569,241 L 567,239 L 564,239 L 563,238 L 566,236 L 565,235 L 564,236 L 562,235 L 561,233 L 559,232 L 560,230 L 562,231 L 560,229 L 561,228 L 560,227 L 557,229 L 555,228 L 556,229 L 555,230 L 553,229 L 554,230 L 553,231 L 551,230 L 550,232 L 549,231 L 550,232 L 549,233 L 547,232 L 546,234 L 545,233 L 530,241 L 528,241 L 518,246 L 529,241 L 531,242 L 532,251 L 536,253 L 535,254 L 536,255 L 535,257 L 537,258 L 532,261 L 535,259 L 537,259 L 542,256 L 544,256 L 555,250 L 557,250 L 563,247 L 562,246 L 563,245 L 565,246 L 564,245 L 565,244 L 567,245 L 566,244 L 568,242 Z" fill="#5b6f7d" stroke="none"/>
<path d="M 764,925 L 845,925 L 846,924 L 855,924 L 782,924 L 781,925 Z" fill="#2e76ae" stroke="none"/>
<path d="M 393,924 L 398,924 L 399,925 L 489,925 L 478,925 L 477,924 Z" fill="#2e76ae" stroke="none"/>
<path d="M 1080,840 L 1080,879 L 1145,879 L 1145,871 L 1089,871 L 1088,870 L 1087,848 L 1088,847 L 1090,848 L 1088,847 L 1089,846 L 1140,846 L 1140,840 Z" fill="#2e76ae" stroke="none"/>
<path d="M 943,835 L 938,838 L 937,835 L 936,854 L 933,864 L 928,869 L 923,871 L 878,871 L 876,862 L 877,859 L 867,849 L 867,879 L 868,878 L 869,879 L 923,879 L 924,877 L 928,878 L 927,877 L 928,876 L 932,878 L 930,876 L 932,875 L 934,877 L 932,875 L 933,874 L 936,876 L 937,875 L 936,874 L 939,871 L 940,872 L 941,871 L 940,869 L 941,868 L 942,869 L 941,867 L 942,866 L 943,867 L 944,864 Z" fill="#2e76ae" stroke="none"/>
<path d="M 767,835 L 767,879 L 833,879 L 833,871 L 775,870 L 776,848 L 829,848 L 776,848 L 776,846 L 828,846 L 828,840 L 775,840 L 773,835 L 768,840 Z" fill="#2e76ae" stroke="none"/>
<path d="M 976,829 L 976,853 L 974,853 L 974,833 L 974,860 L 976,859 L 976,868 L 979,868 L 977,870 L 981,871 L 980,874 L 982,876 L 984,875 L 989,878 L 995,877 L 994,879 L 1032,879 L 1019,879 L 1019,877 L 1036,878 L 1041,877 L 1043,872 L 1045,872 L 1045,865 L 1047,866 L 1047,839 L 1046,851 L 1045,841 L 1018,841 L 1017,845 L 1016,843 L 1017,847 L 1038,848 L 1038,863 L 1036,868 L 1032,871 L 995,871 L 988,868 L 985,864 L 982,832 L 981,835 L 977,836 Z" fill="#2e76ae" stroke="none"/>
<path d="M 756,568 L 755,569 L 755,583 L 770,583 L 770,568 Z" fill="#2e76ae" stroke="none"/>
<path d="M 714,549 L 713,550 L 713,563 L 714,564 L 713,565 L 713,566 L 730,566 L 730,549 L 729,549 L 728,550 L 715,550 Z" fill="#2e76ae" stroke="none"/>
<path d="M 633,539 L 633,555 L 631,557 L 629,555 L 628,549 L 627,554 L 627,641 L 627,589 L 629,589 L 629,641 L 629,632 L 631,632 L 631,637 L 631,595 L 633,590 Z" fill="#2e76ae" stroke="none"/>
<path d="M 711,507 L 711,523 L 728,523 L 727,522 L 727,509 L 728,508 L 727,507 Z" fill="#2e76ae" stroke="none"/>
<path d="M 797,471 L 791,477 L 792,478 L 789,481 L 788,480 L 785,483 L 786,484 L 782,488 L 781,487 L 782,488 L 781,489 L 780,489 L 779,488 L 778,489 L 767,489 L 768,489 L 769,490 L 770,489 L 771,490 L 777,490 L 778,489 L 779,490 L 780,490 L 781,489 L 782,490 L 797,475 L 797,473 L 796,472 Z" fill="#2e76ae" stroke="none"/>
<path d="M 879,468 L 875,469 L 872,474 L 849,474 L 823,500 L 839,484 L 840,484 L 844,480 L 845,481 L 850,476 L 870,476 L 868,476 L 867,475 L 868,474 L 872,474 L 873,473 L 874,475 L 872,476 L 874,479 L 874,477 L 875,476 L 876,477 L 875,476 L 875,473 L 878,470 L 879,470 Z" fill="#2e76ae" stroke="none"/>
<path d="M 739,433 L 740,434 L 740,438 L 739,439 L 739,449 L 740,448 L 741,449 L 754,449 L 754,434 L 753,435 L 752,434 L 745,434 L 744,435 L 742,435 L 741,434 L 740,434 Z" fill="#2e76ae" stroke="none"/>
<path d="M 677,433 L 677,566 L 675,530 L 674,536 L 672,528 L 673,691 L 676,682 L 678,684 L 693,674 L 693,659 L 684,658 L 686,643 L 693,642 L 677,641 L 677,625 L 693,624 L 693,606 L 677,605 L 677,585 L 693,584 L 693,567 L 677,566 L 677,548 L 693,546 L 693,543 L 692,546 L 683,545 L 680,528 L 683,527 L 677,525 Z" fill="#2e76ae" stroke="none"/>
<path d="M 728,426 L 728,435 L 729,435 L 730,434 L 736,434 L 736,433 L 737,432 L 737,431 L 738,430 L 737,430 L 736,431 L 735,430 L 732,430 L 731,429 L 731,428 L 730,429 L 728,427 Z" fill="#2e76ae" stroke="none"/>
<path d="M 879,418 L 879,419 L 879,418 L 876,415 L 875,415 L 874,414 L 871,414 L 870,415 L 869,415 L 867,417 L 867,418 L 866,419 L 866,422 L 867,423 L 866,426 L 856,436 L 850,436 L 856,436 L 857,435 L 858,435 L 859,436 L 857,438 L 867,428 L 865,430 L 864,429 L 864,428 L 867,425 L 867,423 L 868,422 L 869,423 L 869,424 L 870,424 L 871,425 L 868,422 L 868,419 L 870,417 L 869,416 L 870,415 L 871,415 L 872,416 L 874,416 L 877,419 L 876,418 L 876,417 L 877,416 Z" fill="#2e76ae" stroke="none"/>
<path d="M 806,396 L 806,401 L 806,398 L 807,397 L 808,398 L 808,407 L 809,407 L 811,409 L 812,408 L 813,409 L 813,408 L 814,407 L 815,408 L 818,408 L 819,407 L 820,408 L 820,402 L 819,401 L 819,397 L 818,396 L 817,396 L 816,395 L 808,395 L 808,396 L 807,397 Z" fill="#2e76ae" stroke="none"/>
<path d="M 900,354 L 896,350 L 892,351 L 891,350 L 885,356 L 878,357 L 863,357 L 862,356 L 851,356 L 850,357 L 839,357 L 838,356 L 828,357 L 827,356 L 826,357 L 825,356 L 818,361 L 795,385 L 794,384 L 789,389 L 790,390 L 785,395 L 786,396 L 780,402 L 825,358 L 886,358 L 890,363 L 896,364 L 900,360 Z" fill="#2e76ae" stroke="none"/>
<path d="M 731,334 L 731,335 L 730,336 L 731,337 L 731,341 L 730,342 L 730,345 L 731,346 L 730,347 L 731,348 L 731,349 L 736,349 L 737,348 L 739,348 L 740,349 L 744,349 L 745,348 L 746,348 L 746,336 L 746,346 L 745,347 L 744,346 L 744,336 L 737,336 L 736,335 L 737,334 L 745,334 Z" fill="#2e76ae" stroke="none"/>
<path d="M 694,334 L 694,349 L 710,349 L 710,348 L 709,347 L 709,336 L 710,335 L 709,336 L 708,335 L 696,335 L 695,334 Z" fill="#2e76ae" stroke="none"/>
<path d="M 841,324 L 840,323 L 837,325 L 839,324 L 841,327 L 841,331 L 838,334 L 837,333 L 838,334 L 837,335 L 835,335 L 833,332 L 832,333 L 830,331 L 831,329 L 830,327 L 833,324 L 834,325 L 833,324 L 830,326 L 829,325 L 830,326 L 830,333 L 829,334 L 828,333 L 829,334 L 827,336 L 826,335 L 819,342 L 820,343 L 802,358 L 798,363 L 797,362 L 785,374 L 784,373 L 781,376 L 782,377 L 780,379 L 775,381 L 776,380 L 778,382 L 777,381 L 778,380 L 780,381 L 792,369 L 812,353 L 822,342 L 831,335 L 840,335 L 842,333 L 840,326 Z" fill="#2e76ae" stroke="none"/>
<path d="M 631,317 L 631,320 L 630,321 L 629,320 L 629,318 L 629,381 L 628,382 L 628,415 L 628,407 L 629,406 L 630,397 L 632,392 L 632,340 L 631,339 L 632,337 L 632,328 L 631,327 Z" fill="#2e76ae" stroke="none"/>
<path d="M 712,312 L 712,319 L 715,319 L 716,320 L 719,320 L 720,321 L 721,321 L 722,320 L 723,321 L 724,321 L 725,320 L 726,321 L 727,321 L 727,315 L 726,314 L 724,314 L 722,312 Z" fill="#2e76ae" stroke="none"/>
<path d="M 759,296 L 757,296 L 758,296 L 759,297 L 758,298 L 748,298 L 747,297 L 747,298 L 748,299 L 747,300 L 747,309 L 760,309 L 759,308 L 759,299 L 760,298 L 759,297 Z" fill="#2e76ae" stroke="none"/>
<path d="M 668,290 L 668,332 L 666,330 L 664,375 L 667,436 L 667,381 L 669,381 L 669,516 Z" fill="#2e76ae" stroke="none"/>
<path d="M 740,286 L 741,287 L 741,290 L 742,291 L 741,292 L 742,291 L 743,292 L 744,291 L 746,293 L 749,293 L 746,293 L 745,292 L 748,289 L 749,289 L 750,288 L 751,289 L 751,288 L 748,285 L 741,285 Z" fill="#2e76ae" stroke="none"/>
<path d="M 559,928 L 573,929 L 579,931 L 600,932 L 620,936 L 621,935 L 623,936 L 624,935 L 651,935 L 656,933 L 674,932 L 685,929 L 686,930 L 698,928 L 662,927 L 645,931 L 640,930 L 618,931 L 598,927 Z" fill="#10202e" stroke="none"/>
<path d="M 853,923 L 936,923 L 936,925 L 926,925 L 1010,924 Z" fill="#10202e" stroke="none"/>
<path d="M 256,924 L 263,925 L 331,925 L 326,925 L 325,924 L 326,923 L 397,923 Z" fill="#10202e" stroke="none"/>
<path d="M 562,920 L 582,921 L 562,922 L 604,921 L 604,919 L 643,918 L 654,919 L 655,920 L 652,921 L 694,922 L 681,922 L 681,920 L 693,920 L 680,920 L 675,918 L 645,914 L 613,914 L 599,917 L 587,917 L 580,920 Z" fill="#10202e" stroke="none"/>
<path d="M 655,718 L 654,719 L 653,718 L 652,718 L 650,715 L 649,715 L 647,717 L 646,717 L 645,716 L 645,715 L 646,714 L 645,715 L 644,714 L 643,714 L 644,715 L 643,716 L 642,716 L 641,715 L 642,716 L 640,718 L 639,718 L 639,719 L 640,719 L 641,720 L 641,721 L 640,722 L 640,725 L 638,727 L 636,727 L 635,728 L 635,739 L 636,740 L 642,740 L 643,739 L 644,740 L 643,739 L 643,738 L 644,737 L 645,738 L 644,737 L 645,736 L 646,733 L 647,732 L 648,733 L 647,732 L 647,731 L 648,730 L 647,731 L 645,729 L 645,728 L 646,727 L 648,727 L 649,728 L 650,727 L 651,728 L 650,727 L 650,726 L 651,725 L 652,726 L 651,725 L 653,722 L 654,723 L 653,722 L 653,721 L 654,720 L 655,721 L 654,720 L 654,719 Z" fill="#10202e" stroke="none"/>
<path d="M 723,654 L 723,663 L 724,664 L 723,663 L 723,659 L 724,658 L 725,659 L 725,662 L 726,663 L 732,663 L 733,662 L 733,654 Z" fill="#10202e" stroke="none"/>
<path d="M 753,627 L 753,636 L 752,637 L 753,638 L 758,638 L 759,637 L 761,637 L 762,638 L 763,637 L 762,636 L 762,627 L 759,627 L 758,628 L 755,628 L 754,627 Z" fill="#10202e" stroke="none"/>
<path d="M 729,613 L 729,614 L 728,615 L 728,619 L 727,620 L 727,622 L 726,623 L 726,624 L 734,624 L 734,618 L 733,617 L 732,618 L 731,618 L 730,619 L 729,619 L 728,618 L 729,617 L 728,616 L 729,615 Z" fill="#10202e" stroke="none"/>
<path d="M 785,602 L 785,612 L 786,613 L 787,613 L 788,612 L 794,612 L 795,613 L 796,612 L 796,605 L 795,604 L 796,603 L 795,602 Z" fill="#10202e" stroke="none"/>
<path d="M 730,596 L 730,602 L 729,603 L 729,605 L 729,603 L 730,602 L 730,601 L 731,600 L 732,601 L 732,603 L 731,604 L 731,606 L 730,607 L 730,610 L 744,610 L 745,609 L 746,609 L 746,596 L 732,596 L 732,597 L 731,598 L 730,597 Z" fill="#10202e" stroke="none"/>
<path d="M 720,573 L 720,576 L 723,576 L 724,577 L 724,578 L 723,579 L 724,580 L 724,581 L 725,582 L 725,583 L 730,583 L 730,575 L 729,575 L 728,574 L 728,573 L 727,572 L 723,572 L 722,573 Z" fill="#10202e" stroke="none"/>
<path d="M 818,569 L 819,569 L 820,570 L 819,571 L 818,571 L 818,579 L 827,579 L 827,570 L 820,570 L 819,569 Z" fill="#10202e" stroke="none"/>
<path d="M 694,548 L 695,583 L 693,585 L 681,585 L 693,586 L 687,587 L 688,599 L 692,603 L 686,605 L 694,605 L 694,624 L 690,625 L 693,626 L 690,629 L 690,637 L 692,636 L 693,639 L 687,640 L 694,641 L 694,659 L 700,660 L 706,657 L 701,652 L 708,644 L 708,641 L 712,641 L 712,639 L 722,639 L 722,625 L 721,632 L 720,627 L 711,627 L 711,640 L 707,640 L 708,626 L 720,625 L 708,625 L 709,607 L 702,608 L 698,606 L 700,602 L 701,604 L 701,588 L 700,590 L 699,586 L 696,585 L 710,584 L 711,581 L 710,567 L 694,566 Z" fill="#10202e" stroke="none"/>
<path d="M 831,528 L 833,530 L 840,530 L 841,531 L 854,531 L 855,530 L 857,530 L 857,529 L 856,529 L 855,528 Z" fill="#10202e" stroke="none"/>
<path d="M 694,526 L 694,542 L 695,543 L 695,545 L 694,546 L 695,545 L 696,546 L 709,546 L 710,547 L 711,546 L 711,530 L 710,529 L 695,529 L 694,528 Z" fill="#10202e" stroke="none"/>
<path d="M 867,523 L 864,526 L 864,527 L 863,528 L 863,531 L 864,531 L 866,534 L 865,533 L 865,532 L 866,531 L 866,528 L 869,525 L 871,525 L 874,528 L 874,531 L 871,534 L 869,534 L 868,533 L 869,534 L 871,534 L 874,531 L 875,532 L 875,533 L 873,535 L 874,536 L 873,537 L 871,537 L 870,538 L 869,538 L 870,538 L 871,537 L 873,537 L 874,536 L 873,535 L 875,533 L 876,534 L 877,533 L 877,527 L 874,524 L 873,524 L 872,523 Z" fill="#10202e" stroke="none"/>
<path d="M 746,507 L 746,523 L 747,524 L 747,525 L 748,525 L 749,526 L 753,526 L 756,523 L 758,523 L 759,522 L 768,522 L 769,521 L 769,518 L 768,519 L 767,518 L 766,519 L 762,519 L 761,518 L 761,507 Z" fill="#10202e" stroke="none"/>
<path d="M 828,499 L 823,504 L 820,502 L 823,499 L 803,519 L 800,519 L 799,518 L 785,518 L 781,515 L 782,514 L 780,512 L 773,512 L 771,514 L 773,512 L 780,512 L 781,513 L 780,514 L 777,514 L 779,515 L 778,516 L 775,516 L 778,516 L 780,518 L 780,522 L 778,524 L 776,524 L 773,522 L 773,520 L 773,523 L 775,525 L 778,524 L 781,526 L 784,522 L 800,522 L 801,521 L 806,521 Z" fill="#10202e" stroke="none"/>
<path d="M 798,493 L 798,501 L 806,501 L 807,502 L 810,502 L 810,493 Z" fill="#10202e" stroke="none"/>
<path d="M 440,483 L 456,528 L 453,531 L 448,522 L 442,524 L 438,535 L 433,525 L 435,515 L 430,515 L 426,508 L 452,567 L 496,634 L 535,674 L 610,729 L 610,711 L 604,696 L 590,685 L 598,692 L 594,694 L 590,688 L 591,691 L 584,693 L 581,682 L 564,671 L 526,634 L 484,581 L 459,539 Z" fill="#10202e" stroke="none"/>
<path d="M 585,472 L 634,537 L 635,708 L 644,705 L 640,703 L 649,699 L 647,696 L 653,697 L 647,705 L 659,714 L 668,698 L 666,534 L 658,526 L 657,508 L 651,506 L 650,501 L 645,501 L 648,496 L 642,490 L 634,498 L 630,495 L 630,499 L 626,493 L 628,495 L 624,495 L 623,501 L 617,501 L 620,495 L 614,501 L 621,502 L 620,505 L 624,503 L 625,506 L 622,506 L 626,511 L 621,515 Z" fill="#10202e" stroke="none"/>
<path d="M 527,457 L 527,518 L 525,518 L 525,500 L 523,502 L 525,505 L 524,508 L 517,512 L 514,509 L 514,506 L 516,505 L 511,511 L 504,511 L 499,507 L 493,511 L 492,503 L 492,521 L 489,529 L 491,533 L 495,535 L 496,538 L 494,538 L 498,540 L 497,542 L 496,541 L 528,587 L 528,584 L 526,583 Z" fill="#10202e" stroke="none"/>
<path d="M 692,435 L 692,450 L 685,453 L 685,463 L 686,466 L 690,469 L 691,468 L 692,469 L 691,471 L 687,472 L 688,473 L 688,486 L 691,487 L 692,490 L 690,492 L 686,493 L 686,504 L 684,505 L 685,506 L 692,506 L 693,505 L 694,506 L 694,523 L 693,524 L 686,524 L 684,525 L 691,525 L 694,523 L 694,494 L 692,490 L 694,485 L 693,484 L 694,483 L 694,476 L 695,475 L 696,478 L 697,478 L 698,473 L 693,470 L 694,453 L 692,450 Z" fill="#10202e" stroke="none"/>
<path d="M 725,434 L 718,434 L 718,435 L 719,435 L 720,436 L 720,437 L 717,440 L 717,441 L 716,442 L 715,442 L 715,448 L 716,447 L 717,448 L 718,448 L 719,449 L 720,449 L 721,448 L 721,446 L 723,444 L 724,444 L 723,443 L 724,442 L 725,442 L 725,438 L 726,437 L 726,436 L 727,435 L 726,436 L 725,435 Z" fill="#10202e" stroke="none"/>
<path d="M 696,434 L 696,437 L 697,438 L 697,442 L 697,441 L 698,440 L 699,440 L 701,442 L 704,442 L 705,443 L 705,445 L 706,446 L 705,447 L 699,447 L 697,445 L 697,444 L 697,446 L 696,447 L 695,447 L 708,447 L 709,448 L 710,447 L 711,448 L 711,447 L 710,446 L 710,434 L 707,434 L 708,434 L 709,435 L 709,436 L 708,437 L 703,437 L 702,436 L 703,435 L 701,435 L 700,434 Z" fill="#10202e" stroke="none"/>
<path d="M 727,424 L 727,428 L 727,424 L 729,422 L 741,422 L 742,421 L 743,422 L 743,430 L 742,431 L 739,431 L 752,431 L 752,424 L 746,424 L 745,423 L 744,424 L 743,423 L 743,421 L 733,421 L 732,422 L 729,422 Z" fill="#10202e" stroke="none"/>
<path d="M 731,402 L 731,403 L 732,404 L 739,404 L 740,403 L 743,403 L 744,404 L 744,405 L 745,404 L 751,404 L 751,403 L 750,402 L 750,401 L 748,399 L 748,397 L 747,396 L 747,395 L 747,399 L 746,400 L 745,400 L 743,402 L 742,401 L 742,400 L 741,399 L 740,400 L 738,398 L 737,398 L 736,397 L 739,394 Z" fill="#10202e" stroke="none"/>
<path d="M 850,383 L 849,384 L 850,385 L 849,386 L 849,390 L 850,391 L 849,392 L 857,392 L 857,386 L 856,385 L 857,384 L 851,384 Z" fill="#10202e" stroke="none"/>
<path d="M 700,380 L 700,384 L 699,385 L 699,393 L 708,393 L 709,394 L 725,394 L 709,394 L 708,393 L 709,392 L 709,389 L 708,388 L 708,382 L 707,381 L 707,379 L 706,380 L 705,379 L 703,379 L 702,380 Z" fill="#10202e" stroke="none"/>
<path d="M 694,373 L 694,378 L 693,379 L 678,379 L 678,394 L 679,395 L 678,396 L 678,433 L 679,432 L 681,433 L 693,433 L 694,434 L 694,445 L 694,433 L 693,432 L 693,420 L 692,419 L 693,418 L 693,397 L 690,395 L 691,394 L 693,394 L 693,379 L 694,378 Z" fill="#10202e" stroke="none"/>
<path d="M 726,361 L 725,362 L 722,362 L 721,363 L 713,363 L 712,362 L 711,362 L 711,375 L 713,377 L 718,377 L 719,376 L 726,376 L 726,373 L 727,372 L 727,362 Z" fill="#10202e" stroke="none"/>
<path d="M 852,322 L 852,332 L 853,331 L 862,331 L 862,324 L 861,323 L 862,322 L 861,323 L 854,323 L 853,322 Z" fill="#10202e" stroke="none"/>
<path d="M 692,322 L 691,323 L 689,323 L 687,322 L 685,324 L 682,324 L 681,325 L 679,325 L 678,327 L 678,330 L 679,331 L 679,357 L 678,358 L 678,375 L 678,363 L 679,362 L 684,362 L 685,363 L 692,363 L 686,363 L 685,362 L 685,361 L 687,360 L 689,356 L 689,354 L 687,351 L 688,349 L 683,342 L 683,340 L 682,339 L 683,337 L 683,334 L 681,332 L 681,331 L 684,329 L 686,329 L 687,328 L 693,328 L 693,323 Z" fill="#10202e" stroke="none"/>
<path d="M 770,321 L 770,332 L 771,333 L 772,333 L 773,332 L 781,332 L 782,333 L 783,333 L 783,322 L 783,327 L 782,328 L 781,327 L 781,324 L 772,324 L 772,332 L 771,333 L 770,332 L 770,322 L 771,321 L 772,322 L 781,322 L 772,322 L 771,321 Z" fill="#10202e" stroke="none"/>
<path d="M 690,299 L 690,301 L 688,303 L 687,303 L 686,302 L 684,302 L 681,305 L 680,305 L 679,306 L 679,311 L 680,310 L 681,311 L 691,311 L 692,310 L 692,303 L 693,302 L 694,303 L 694,311 L 692,313 L 690,313 L 691,314 L 691,319 L 692,320 L 692,319 L 693,318 L 693,312 L 694,311 L 694,303 L 693,302 L 693,300 L 692,300 L 691,299 Z" fill="#10202e" stroke="none"/>
<path d="M 712,296 L 711,297 L 712,298 L 712,302 L 713,302 L 713,301 L 714,300 L 715,300 L 716,301 L 716,302 L 717,303 L 718,303 L 721,306 L 721,307 L 722,308 L 721,309 L 717,309 L 722,309 L 723,310 L 722,311 L 713,311 L 723,311 L 724,312 L 726,312 L 728,314 L 727,313 L 728,312 L 728,311 L 726,309 L 727,308 L 727,301 L 728,300 L 728,296 L 722,296 L 721,297 L 716,297 L 715,296 Z" fill="#10202e" stroke="none"/>
<path d="M 780,271 L 781,272 L 780,273 L 780,280 L 781,281 L 780,282 L 783,282 L 784,281 L 787,281 L 788,282 L 792,282 L 792,272 L 782,272 L 781,271 Z" fill="#10202e" stroke="none"/>
<path d="M 712,242 L 712,243 L 713,244 L 712,245 L 713,246 L 712,247 L 714,249 L 715,249 L 716,250 L 716,251 L 718,253 L 718,254 L 724,254 L 725,253 L 726,254 L 725,253 L 725,242 Z" fill="#10202e" stroke="none"/>
<path d="M 611,195 L 605,198 L 603,200 L 600,201 L 598,203 L 597,203 L 596,205 L 595,204 L 593,207 L 592,206 L 593,207 L 592,208 L 590,207 L 591,208 L 589,210 L 586,211 L 581,215 L 575,218 L 578,216 L 579,216 L 580,218 L 582,217 L 583,218 L 582,220 L 583,222 L 585,223 L 584,224 L 585,223 L 587,225 L 587,226 L 589,226 L 591,228 L 593,227 L 594,228 L 593,230 L 592,230 L 590,232 L 586,234 L 590,232 L 592,230 L 599,227 L 603,223 L 608,213 L 608,210 L 609,209 L 609,205 L 610,204 L 611,205 L 611,208 Z" fill="#10202e" stroke="none"/>
</svg>